<svg xmlns="http://www.w3.org/2000/svg" viewBox="0 0 80 80"><title>pizza</title><g id="OBJECTS"><path d="M40,40.66l38.65-.06c0-.29,0-.58,0-.88A38.21,38.21,0,1,0,40.07,78Z" transform="translate(0)" style="fill:#fabd39"/><path d="M40.11,40.47l30.3,0c0-.23,0-.46,0-.69a30,30,0,1,0-30.28,30Z" transform="translate(0)" style="fill:#ffe491"/><path d="M40.05,70.5A30.5,30.5,0,1,1,70.5,40h-1A29.5,29.5,0,1,0,40,69.5Z" transform="translate(0)" style="fill:#f26d21"/><path d="M39.94,0a40,40,0,0,0-.38,80h1L40.5,41,80,40.94v-1h0A40,40,0,0,0,39.94,0Zm-.49,4,0,36L4,40.05A36,36,0,0,1,39.45,4Zm.1,72A36,36,0,0,1,4,41.05L39.5,41Zm1-36,0-36A36,36,0,0,1,76,40Z" transform="translate(0)" style="fill:#f26d21"/><path d="M22.82,33.77a5.25,5.25,0,1,1,5.25-5.25A5.24,5.24,0,0,1,22.82,33.77Z" transform="translate(0)" style="fill:#f26d21"/><path d="M36.32,21.93a3.7,3.7,0,1,1-3.7-3.69A3.7,3.7,0,0,1,36.32,21.93Z" transform="translate(0)" style="fill:#f26d21"/><path d="M37.18,31.76a2.63,2.63,0,1,1-2.63-2.63A2.62,2.62,0,0,1,37.18,31.76Z" transform="translate(0)" style="fill:#f26d21"/><path d="M44.67,21.28a5.25,5.25,0,1,1,5.26,5.24A5.26,5.26,0,0,1,44.67,21.28Z" transform="translate(0)" style="fill:#f26d21"/><path d="M56.51,34.78a3.7,3.7,0,1,1,3.69-3.7A3.7,3.7,0,0,1,56.51,34.78Z" transform="translate(0)" style="fill:#f26d21"/><path d="M46.68,35.64A2.63,2.63,0,1,1,49.31,33,2.62,2.62,0,0,1,46.68,35.64Z" transform="translate(0)" style="fill:#f26d21"/><path d="M34.56,58.12a5.25,5.25,0,1,1-5.25-5.25A5.24,5.24,0,0,1,34.56,58.12Z" transform="translate(0)" style="fill:#f26d21"/><path d="M22.73,44.62A3.7,3.7,0,1,1,19,48.32,3.7,3.7,0,0,1,22.73,44.62Z" transform="translate(0)" style="fill:#f26d21"/><path d="M32.55,43.76a2.63,2.63,0,1,1-2.62,2.63A2.63,2.63,0,0,1,32.55,43.76Z" transform="translate(0)" style="fill:#f26d21"/><path d="M39.93,40.32,40,78.27h.21a38,38,0,0,0,37.9-38Z" transform="translate(0)" style="fill:#fabd39"/><path d="M39.93,40.32l0,29.95h.17a30,30,0,0,0,29.91-30Z" transform="translate(0)" style="fill:#ffe491"/><path d="M40.06,80V76A36,36,0,0,0,76,40h4A40,40,0,0,1,40.06,80Z" transform="translate(0)" style="fill:#f26d21"/><path d="M40.05,70.5v-1A29.53,29.53,0,0,0,69.5,40h1A30.54,30.54,0,0,1,40.05,70.5Z" transform="translate(0)" style="fill:#f26d21"/><rect x="39.53" y="40.17" width="1" height="39.83" transform="translate(-0.09 0.06) rotate(-0.09)" style="fill:#f26d21"/><rect x="39.54" y="39.97" width="40.42" height="1" transform="translate(-0.06 0.09) rotate(-0.09)" style="fill:#f26d21"/><path d="M58.9,45.05a5.25,5.25,0,1,1-5.24,5.26A5.27,5.27,0,0,1,58.9,45.05Z" transform="translate(0)" style="fill:#f26d21"/><path d="M45.4,56.89a3.7,3.7,0,1,1,3.7,3.69A3.7,3.7,0,0,1,45.4,56.89Z" transform="translate(0)" style="fill:#f26d21"/><path d="M44.54,47.07a2.63,2.63,0,1,1,2.63,2.62A2.63,2.63,0,0,1,44.54,47.07Z" transform="translate(0)" style="fill:#f26d21"/></g></svg>